<mxfile host="app.diagrams.net" agent="Mozilla/5.0 (Macintosh; Intel Mac OS X 10_15_7) AppleWebKit/537.36 (KHTML, like Gecko) Chrome/130.0.0.0 Safari/537.36" version="24.8.4">
  <diagram name="第 1 页" id="TtaUUUAR0I2Qt-rsAuGh">
    <mxGraphModel dx="1829" dy="1138" grid="1" gridSize="10" guides="1" tooltips="1" connect="1" arrows="0" fold="1" page="1" pageScale="1" pageWidth="1654" pageHeight="1169" background="#FFFFFF" math="0" shadow="0">
      <root>
        <mxCell id="0" />
        <mxCell id="1" parent="0" />
        <mxCell id="XUBQJ64cmYo1AAJjvE-t-12" style="edgeStyle=orthogonalEdgeStyle;rounded=0;orthogonalLoop=1;jettySize=auto;html=1;exitX=0.5;exitY=1;exitDx=0;exitDy=0;entryX=0.5;entryY=0;entryDx=0;entryDy=0;strokeColor=#3399FF;strokeWidth=5;" parent="1" source="Pi1XBdwWhrZV_ONEeQd5-2" target="Pi1XBdwWhrZV_ONEeQd5-9" edge="1">
          <mxGeometry relative="1" as="geometry" />
        </mxCell>
        <mxCell id="Pi1XBdwWhrZV_ONEeQd5-2" value="&lt;font color=&quot;#000000&quot; style=&quot;font-size: 22px;&quot;&gt;Begin&lt;/font&gt;" style="rounded=1;whiteSpace=wrap;html=1;fillColor=#dae8fc;strokeColor=#6c8ebf;" parent="1" vertex="1">
          <mxGeometry x="200" y="170" width="80" height="60" as="geometry" />
        </mxCell>
        <mxCell id="HMCcM8Cfioci80AgD0dG-16" style="edgeStyle=orthogonalEdgeStyle;rounded=0;orthogonalLoop=1;jettySize=auto;html=1;exitX=0.5;exitY=1;exitDx=0;exitDy=0;endArrow=classic;endFill=1;strokeWidth=5;strokeColor=#3499ff;" parent="1" source="Pi1XBdwWhrZV_ONEeQd5-16" edge="1">
          <mxGeometry relative="1" as="geometry">
            <mxPoint x="460" y="415" as="targetPoint" />
            <mxPoint x="330" y="915.9199999999997" as="sourcePoint" />
            <Array as="points">
              <mxPoint x="330" y="860" />
              <mxPoint x="720" y="860" />
              <mxPoint x="720" y="415" />
            </Array>
          </mxGeometry>
        </mxCell>
        <mxCell id="Pi1XBdwWhrZV_ONEeQd5-16" value="&lt;font style=&quot;font-size: 19px;&quot; color=&quot;#000000&quot;&gt;Buzzer beeps&amp;nbsp;&lt;/font&gt;" style="rounded=0;whiteSpace=wrap;html=1;fillColor=#dae8fc;strokeColor=#6c8ebf;" parent="1" vertex="1">
          <mxGeometry x="230" y="765" width="200" height="69" as="geometry" />
        </mxCell>
        <mxCell id="XUBQJ64cmYo1AAJjvE-t-20" style="edgeStyle=orthogonalEdgeStyle;rounded=0;orthogonalLoop=1;jettySize=auto;html=1;exitX=1;exitY=0.5;exitDx=0;exitDy=0;entryX=0;entryY=0.5;entryDx=0;entryDy=0;strokeColor=#3399FF;strokeWidth=5;" parent="1" source="Pi1XBdwWhrZV_ONEeQd5-17" target="Pi1XBdwWhrZV_ONEeQd5-18" edge="1">
          <mxGeometry relative="1" as="geometry" />
        </mxCell>
        <mxCell id="HMCcM8Cfioci80AgD0dG-4" style="edgeStyle=orthogonalEdgeStyle;rounded=0;orthogonalLoop=1;jettySize=auto;html=1;exitX=0.5;exitY=1;exitDx=0;exitDy=0;entryX=0.5;entryY=0;entryDx=0;entryDy=0;strokeWidth=5;strokeColor=#3499ff;" parent="1" source="Pi1XBdwWhrZV_ONEeQd5-17" edge="1">
          <mxGeometry relative="1" as="geometry">
            <mxPoint x="906" y="570" as="targetPoint" />
          </mxGeometry>
        </mxCell>
        <mxCell id="HMCcM8Cfioci80AgD0dG-5" style="edgeStyle=orthogonalEdgeStyle;rounded=0;orthogonalLoop=1;jettySize=auto;html=1;exitX=0.5;exitY=1;exitDx=0;exitDy=0;" parent="1" source="Pi1XBdwWhrZV_ONEeQd5-17" edge="1">
          <mxGeometry relative="1" as="geometry">
            <mxPoint x="1026.235294117647" y="508.58823529411757" as="targetPoint" />
          </mxGeometry>
        </mxCell>
        <mxCell id="HMCcM8Cfioci80AgD0dG-7" style="edgeStyle=orthogonalEdgeStyle;rounded=0;orthogonalLoop=1;jettySize=auto;html=1;exitX=0.5;exitY=1;exitDx=0;exitDy=0;entryX=0.5;entryY=0;entryDx=0;entryDy=0;strokeWidth=5;strokeColor=#3499ff;" parent="1" source="Pi1XBdwWhrZV_ONEeQd5-17" target="HMCcM8Cfioci80AgD0dG-6" edge="1">
          <mxGeometry relative="1" as="geometry" />
        </mxCell>
        <mxCell id="Pi1XBdwWhrZV_ONEeQd5-17" value="&lt;font style=&quot;font-size: 21px;&quot; color=&quot;#000000&quot;&gt;Gesture sensor sends information to the MCU&lt;/font&gt;" style="rounded=0;whiteSpace=wrap;html=1;fillColor=#dae8fc;strokeColor=#6c8ebf;" parent="1" vertex="1">
          <mxGeometry x="926" y="429.5" width="200" height="79" as="geometry" />
        </mxCell>
        <mxCell id="XUBQJ64cmYo1AAJjvE-t-15" style="edgeStyle=orthogonalEdgeStyle;rounded=0;orthogonalLoop=1;jettySize=auto;html=1;exitX=0.5;exitY=1;exitDx=0;exitDy=0;strokeColor=#3399FF;strokeWidth=5;" parent="1" source="Pi1XBdwWhrZV_ONEeQd5-18" edge="1">
          <mxGeometry relative="1" as="geometry">
            <mxPoint x="1030" y="860" as="targetPoint" />
            <Array as="points">
              <mxPoint x="1352" y="860" />
              <mxPoint x="1030" y="860" />
            </Array>
          </mxGeometry>
        </mxCell>
        <mxCell id="Pi1XBdwWhrZV_ONEeQd5-18" value="&lt;font style=&quot;font-size: 21px;&quot; color=&quot;#000000&quot;&gt;LCD Module shows recognized gesture&lt;/font&gt;" style="rounded=0;whiteSpace=wrap;html=1;fillColor=#dae8fc;strokeColor=#6c8ebf;" parent="1" vertex="1">
          <mxGeometry x="1256" y="439" width="192" height="60" as="geometry" />
        </mxCell>
        <mxCell id="XUBQJ64cmYo1AAJjvE-t-24" style="edgeStyle=orthogonalEdgeStyle;rounded=0;orthogonalLoop=1;jettySize=auto;html=1;exitX=0.5;exitY=1;exitDx=0;exitDy=0;entryX=0.5;entryY=0;entryDx=0;entryDy=0;strokeColor=#3399FF;strokeWidth=5;" parent="1" target="XUBQJ64cmYo1AAJjvE-t-23" edge="1">
          <mxGeometry relative="1" as="geometry">
            <mxPoint x="1026" y="750" as="sourcePoint" />
          </mxGeometry>
        </mxCell>
        <mxCell id="Pi1XBdwWhrZV_ONEeQd5-28" value="&lt;font style=&quot;font-size: 22px;&quot; color=&quot;#000000&quot;&gt;End&lt;/font&gt;" style="rounded=1;whiteSpace=wrap;html=1;fillColor=#dae8fc;strokeColor=#6c8ebf;" parent="1" vertex="1">
          <mxGeometry x="986" y="1038" width="80" height="60" as="geometry" />
        </mxCell>
        <mxCell id="XUBQJ64cmYo1AAJjvE-t-13" style="edgeStyle=orthogonalEdgeStyle;rounded=0;orthogonalLoop=1;jettySize=auto;html=1;exitX=0.5;exitY=1;exitDx=0;exitDy=0;entryX=0.5;entryY=0;entryDx=0;entryDy=0;strokeColor=#3399FF;strokeWidth=5;" parent="1" source="26zMMwYjGmdjbiz2VFBF-2" target="Pi1XBdwWhrZV_ONEeQd5-16" edge="1">
          <mxGeometry relative="1" as="geometry" />
        </mxCell>
        <mxCell id="HMCcM8Cfioci80AgD0dG-10" style="edgeStyle=orthogonalEdgeStyle;rounded=0;orthogonalLoop=1;jettySize=auto;html=1;exitX=1;exitY=0.5;exitDx=0;exitDy=0;entryX=0;entryY=0.5;entryDx=0;entryDy=0;strokeWidth=5;strokeColor=#3499ff;" parent="1" source="Pi1XBdwWhrZV_ONEeQd5-9" target="HMCcM8Cfioci80AgD0dG-1" edge="1">
          <mxGeometry relative="1" as="geometry" />
        </mxCell>
        <mxCell id="Pi1XBdwWhrZV_ONEeQd5-9" value="&lt;font style=&quot;font-size: 22px;&quot; color=&quot;#000000&quot;&gt;PC powers&lt;/font&gt;&lt;span style=&quot;font-size: 22px; background-color: initial;&quot;&gt;&amp;nbsp;MCU&lt;/span&gt;" style="rounded=0;whiteSpace=wrap;html=1;fillColor=#dae8fc;strokeColor=#6c8ebf;" parent="1" vertex="1">
          <mxGeometry x="150" y="310" width="180" height="60" as="geometry" />
        </mxCell>
        <mxCell id="XUBQJ64cmYo1AAJjvE-t-26" style="edgeStyle=orthogonalEdgeStyle;rounded=0;orthogonalLoop=1;jettySize=auto;html=1;exitX=0.5;exitY=1;exitDx=0;exitDy=0;entryX=0.5;entryY=0;entryDx=0;entryDy=0;strokeColor=#3399FF;strokeWidth=5;" parent="1" source="XUBQJ64cmYo1AAJjvE-t-23" target="Pi1XBdwWhrZV_ONEeQd5-28" edge="1">
          <mxGeometry relative="1" as="geometry" />
        </mxCell>
        <mxCell id="HMCcM8Cfioci80AgD0dG-22" style="edgeStyle=orthogonalEdgeStyle;rounded=0;orthogonalLoop=1;jettySize=auto;html=1;strokeWidth=5;strokeColor=#3499ff;exitX=1;exitY=0.5;exitDx=0;exitDy=0;" parent="1" source="XUBQJ64cmYo1AAJjvE-t-23" edge="1">
          <mxGeometry relative="1" as="geometry">
            <mxPoint x="460" y="340" as="targetPoint" />
            <Array as="points">
              <mxPoint x="1480" y="940" />
              <mxPoint x="1480" y="270" />
              <mxPoint x="460" y="270" />
              <mxPoint x="460" y="340" />
            </Array>
            <mxPoint x="946" y="940" as="sourcePoint" />
          </mxGeometry>
        </mxCell>
        <mxCell id="XUBQJ64cmYo1AAJjvE-t-23" value="&lt;font style=&quot;font-size: 22px;&quot;&gt;Turn off PC?&lt;/font&gt;" style="rhombus;whiteSpace=wrap;html=1;strokeColor=#6c8ebf;fillColor=#dae8fc;" parent="1" vertex="1">
          <mxGeometry x="946" y="900" width="160" height="80" as="geometry" />
        </mxCell>
        <mxCell id="XUBQJ64cmYo1AAJjvE-t-27" value="&lt;font style=&quot;font-size: 26px;&quot;&gt;Yes&lt;/font&gt;" style="text;html=1;align=center;verticalAlign=middle;whiteSpace=wrap;rounded=0;" parent="1" vertex="1">
          <mxGeometry x="1030" y="988" width="60" height="30" as="geometry" />
        </mxCell>
        <mxCell id="XUBQJ64cmYo1AAJjvE-t-28" value="&lt;font style=&quot;font-size: 26px;&quot;&gt;No&lt;/font&gt;" style="text;html=1;align=center;verticalAlign=middle;whiteSpace=wrap;rounded=0;" parent="1" vertex="1">
          <mxGeometry x="1280" y="900" width="60" height="30" as="geometry" />
        </mxCell>
        <mxCell id="bB9vTlYvbKVGL8YAkGGn-3" style="edgeStyle=orthogonalEdgeStyle;rounded=0;orthogonalLoop=1;jettySize=auto;html=1;exitX=0.5;exitY=1;exitDx=0;exitDy=0;entryX=0.5;entryY=0;entryDx=0;entryDy=0;strokeWidth=5;strokeColor=#3499ff;" edge="1" parent="1" source="lJw-HqeHEMoSp1FB-S29-2" target="lJw-HqeHEMoSp1FB-S29-3">
          <mxGeometry relative="1" as="geometry" />
        </mxCell>
        <mxCell id="lJw-HqeHEMoSp1FB-S29-2" value="&lt;font style=&quot;font-size: 21px;&quot; color=&quot;#000000&quot;&gt;MCU sends commands to PC through external inputs&lt;/font&gt;" style="rounded=0;whiteSpace=wrap;html=1;fillColor=#dae8fc;strokeColor=#6c8ebf;" parent="1" vertex="1">
          <mxGeometry x="795" y="570" width="220" height="90" as="geometry" />
        </mxCell>
        <mxCell id="lJw-HqeHEMoSp1FB-S29-3" value="&lt;font style=&quot;font-size: 22px;&quot; color=&quot;#000000&quot;&gt;PC completes corespondent task&lt;/font&gt;" style="rounded=0;whiteSpace=wrap;html=1;fillColor=#dae8fc;strokeColor=#6c8ebf;" parent="1" vertex="1">
          <mxGeometry x="926" y="720" width="200" height="60" as="geometry" />
        </mxCell>
        <mxCell id="26zMMwYjGmdjbiz2VFBF-5" style="edgeStyle=orthogonalEdgeStyle;rounded=0;orthogonalLoop=1;jettySize=auto;html=1;exitX=0.5;exitY=1;exitDx=0;exitDy=0;entryX=0.5;entryY=0;entryDx=0;entryDy=0;strokeWidth=5;strokeColor=#3499ff;" parent="1" source="26zMMwYjGmdjbiz2VFBF-2" target="26zMMwYjGmdjbiz2VFBF-4" edge="1">
          <mxGeometry relative="1" as="geometry" />
        </mxCell>
        <mxCell id="HMCcM8Cfioci80AgD0dG-15" style="edgeStyle=orthogonalEdgeStyle;rounded=0;orthogonalLoop=1;jettySize=auto;html=1;exitX=0;exitY=0.5;exitDx=0;exitDy=0;strokeWidth=5;strokeColor=#3499ff;" parent="1" source="26zMMwYjGmdjbiz2VFBF-2" edge="1">
          <mxGeometry relative="1" as="geometry">
            <mxPoint x="460" y="415" as="targetPoint" />
            <mxPoint x="310" y="695" as="sourcePoint" />
            <Array as="points">
              <mxPoint x="290" y="635" />
              <mxPoint x="290" y="415" />
            </Array>
          </mxGeometry>
        </mxCell>
        <mxCell id="26zMMwYjGmdjbiz2VFBF-2" value="&lt;font style=&quot;font-size: 22px;&quot;&gt;Timer reaches&amp;nbsp;&lt;/font&gt;&lt;div&gt;&lt;font style=&quot;font-size: 22px;&quot;&gt;the set time?&lt;/font&gt;&lt;/div&gt;" style="rhombus;whiteSpace=wrap;html=1;strokeColor=#6c8ebf;fillColor=#dae8fc;" parent="1" vertex="1">
          <mxGeometry x="370" y="565" width="180" height="140" as="geometry" />
        </mxCell>
        <mxCell id="HMCcM8Cfioci80AgD0dG-17" style="edgeStyle=orthogonalEdgeStyle;rounded=0;orthogonalLoop=1;jettySize=auto;html=1;exitX=0.5;exitY=1;exitDx=0;exitDy=0;endArrow=none;endFill=0;strokeWidth=5;strokeColor=#3499ff;" parent="1" source="26zMMwYjGmdjbiz2VFBF-4" edge="1">
          <mxGeometry relative="1" as="geometry">
            <mxPoint x="590" y="860" as="targetPoint" />
          </mxGeometry>
        </mxCell>
        <mxCell id="26zMMwYjGmdjbiz2VFBF-4" value="&lt;font style=&quot;font-size: 19px;&quot; color=&quot;#000000&quot;&gt;LCD show water animate&lt;/font&gt;" style="rounded=0;whiteSpace=wrap;html=1;fillColor=#dae8fc;strokeColor=#6c8ebf;" parent="1" vertex="1">
          <mxGeometry x="490" y="765" width="200" height="69" as="geometry" />
        </mxCell>
        <mxCell id="26zMMwYjGmdjbiz2VFBF-8" value="&lt;font style=&quot;font-size: 26px;&quot;&gt;Yes&lt;/font&gt;" style="text;html=1;align=center;verticalAlign=middle;whiteSpace=wrap;rounded=0;" parent="1" vertex="1">
          <mxGeometry x="460" y="705" width="60" height="30" as="geometry" />
        </mxCell>
        <mxCell id="26zMMwYjGmdjbiz2VFBF-9" value="&lt;font style=&quot;font-size: 26px;&quot;&gt;No&lt;/font&gt;" style="text;html=1;align=center;verticalAlign=middle;whiteSpace=wrap;rounded=0;" parent="1" vertex="1">
          <mxGeometry x="280" y="555" width="60" height="30" as="geometry" />
        </mxCell>
        <mxCell id="HMCcM8Cfioci80AgD0dG-3" style="edgeStyle=orthogonalEdgeStyle;rounded=0;orthogonalLoop=1;jettySize=auto;html=1;exitX=0.5;exitY=1;exitDx=0;exitDy=0;entryX=0.5;entryY=0;entryDx=0;entryDy=0;strokeWidth=5;strokeColor=#3499ff;" parent="1" source="HMCcM8Cfioci80AgD0dG-1" target="Pi1XBdwWhrZV_ONEeQd5-17" edge="1">
          <mxGeometry relative="1" as="geometry" />
        </mxCell>
        <mxCell id="HMCcM8Cfioci80AgD0dG-1" value="&lt;font style=&quot;font-size: 22px;&quot; color=&quot;#000000&quot;&gt;Gesture sensor captures gesture&lt;/font&gt;" style="rounded=0;whiteSpace=wrap;html=1;fillColor=#dae8fc;strokeColor=#6c8ebf;" parent="1" vertex="1">
          <mxGeometry x="926" y="310" width="200" height="60" as="geometry" />
        </mxCell>
        <mxCell id="HMCcM8Cfioci80AgD0dG-8" style="edgeStyle=orthogonalEdgeStyle;rounded=0;orthogonalLoop=1;jettySize=auto;html=1;exitX=0.5;exitY=1;exitDx=0;exitDy=0;strokeWidth=5;strokeColor=#3499ff;" parent="1" source="HMCcM8Cfioci80AgD0dG-6" edge="1">
          <mxGeometry relative="1" as="geometry">
            <mxPoint x="1176" y="860" as="targetPoint" />
          </mxGeometry>
        </mxCell>
        <mxCell id="HMCcM8Cfioci80AgD0dG-6" value="&lt;font style=&quot;font-size: 21px;&quot; color=&quot;#000000&quot;&gt;MCU sends commands to control motors&lt;/font&gt;" style="rounded=0;whiteSpace=wrap;html=1;fillColor=#dae8fc;strokeColor=#6c8ebf;" parent="1" vertex="1">
          <mxGeometry x="1076" y="570" width="200" height="90" as="geometry" />
        </mxCell>
        <mxCell id="HMCcM8Cfioci80AgD0dG-13" style="edgeStyle=orthogonalEdgeStyle;rounded=0;orthogonalLoop=1;jettySize=auto;html=1;exitX=0.5;exitY=1;exitDx=0;exitDy=0;entryX=0.5;entryY=0;entryDx=0;entryDy=0;strokeWidth=5;strokeColor=#3499ff;" parent="1" source="HMCcM8Cfioci80AgD0dG-12" target="26zMMwYjGmdjbiz2VFBF-2" edge="1">
          <mxGeometry relative="1" as="geometry" />
        </mxCell>
        <mxCell id="HMCcM8Cfioci80AgD0dG-12" value="&lt;font style=&quot;font-size: 22px;&quot; color=&quot;#000000&quot;&gt;Timer counts&lt;/font&gt;" style="rounded=0;whiteSpace=wrap;html=1;fillColor=#dae8fc;strokeColor=#6c8ebf;" parent="1" vertex="1">
          <mxGeometry x="370" y="453.5" width="180" height="60" as="geometry" />
        </mxCell>
        <mxCell id="HMCcM8Cfioci80AgD0dG-20" value="" style="endArrow=classic;html=1;rounded=0;entryX=0.5;entryY=0;entryDx=0;entryDy=0;strokeWidth=5;strokeColor=#3499ff;" parent="1" target="HMCcM8Cfioci80AgD0dG-12" edge="1">
          <mxGeometry width="50" height="50" relative="1" as="geometry">
            <mxPoint x="460" y="340" as="sourcePoint" />
            <mxPoint x="350" y="410" as="targetPoint" />
          </mxGeometry>
        </mxCell>
        <mxCell id="bB9vTlYvbKVGL8YAkGGn-2" value="" style="endArrow=classic;html=1;rounded=0;strokeWidth=5;strokeColor=#3499ff;" edge="1" parent="1">
          <mxGeometry width="50" height="50" relative="1" as="geometry">
            <mxPoint x="720" y="860" as="sourcePoint" />
            <mxPoint x="1020" y="860" as="targetPoint" />
          </mxGeometry>
        </mxCell>
        <mxCell id="bB9vTlYvbKVGL8YAkGGn-7" value="" style="rounded=1;whiteSpace=wrap;html=1;fillColor=none;strokeColor=#FF0000;strokeWidth=5;" vertex="1" parent="1">
          <mxGeometry x="225" y="380" width="530" height="540" as="geometry" />
        </mxCell>
        <mxCell id="bB9vTlYvbKVGL8YAkGGn-8" value="" style="rounded=1;whiteSpace=wrap;html=1;fillColor=none;strokeColor=#FF0000;strokeWidth=5;" vertex="1" parent="1">
          <mxGeometry x="780" y="290" width="680" height="600" as="geometry" />
        </mxCell>
        <mxCell id="bB9vTlYvbKVGL8YAkGGn-11" value="&lt;span style=&quot;color: rgb(255, 0, 0); font-size: 26px;&quot;&gt;Timer Block&lt;/span&gt;" style="text;html=1;align=center;verticalAlign=middle;whiteSpace=wrap;rounded=0;fillColor=#FFFF00;" vertex="1" parent="1">
          <mxGeometry x="530" y="880" width="140" height="30" as="geometry" />
        </mxCell>
        <mxCell id="bB9vTlYvbKVGL8YAkGGn-12" value="&lt;span style=&quot;color: rgb(255, 0, 0); font-size: 26px;&quot;&gt;Gesture Recognizing Block&lt;/span&gt;" style="text;html=1;align=center;verticalAlign=middle;whiteSpace=wrap;rounded=0;fillColor=#FFFF00;" vertex="1" parent="1">
          <mxGeometry x="1160" y="310" width="250" height="60" as="geometry" />
        </mxCell>
      </root>
    </mxGraphModel>
  </diagram>
</mxfile>
